<?xml version="1.0" encoding="utf-8"?>
<!-- Generator: Adobe Illustrator 15.1.0, SVG Export Plug-In . SVG Version: 6.00 Build 0)  -->
<!DOCTYPE svg PUBLIC "-//W3C//DTD SVG 1.1//EN" "http://www.w3.org/Graphics/SVG/1.1/DTD/svg11.dtd">
<svg version="1.1" id="Layer_1" xmlns="http://www.w3.org/2000/svg" xmlns:xlink="http://www.w3.org/1999/xlink" x="0px" y="0px"
	 width="92.25px" height="109px" viewBox="0 0 92.25 109" enable-background="new 0 0 92.25 109" xml:space="preserve">
<g>
	<path fill="#35740C" d="M42.354,31.423c2.617-3.034,3.262-2.981,3.262-2.981c3.711,3.278,10.307,4.438,15.35,2.713
		c6.684-2.285,8.382-11.084,17.59-12.997c2.141-0.452-14.721-9.968-25.25-6.953c-7.703,2.2-10.025,9.016-10.303,11.118
		c-0.254,1.898,0.336,3.712,0.336,3.712c-2.52,2.167-3.307,3.528-3.307,3.528C39.328,30.434,41.48,32.445,42.354,31.423z
		 M45.93,25.102c8.149-7.198,21.48-8.108,21.48-8.108s-10.528,1.532-20.32,9.709C46.557,26.392,46.01,25.62,45.93,25.102z"/>
</g>
<g id="g4213_2_" transform="matrix(1.3157811,0,0,1.3065705,-134.89456,960.51297)">
	<path id="path4179_2_" fill="none" stroke="#AA7552" stroke-width="4.8238" stroke-miterlimit="10" d="M135.104-698.907
		c0.004-4.172-0.922-8.126-2.7-11.57c-1.366-2.632-3.218-4.969-5.496-6.908"/>
</g>
<g id="g4213_3_" transform="matrix(1.3157811,0,0,1.3065705,-134.89456,960.51297)">
	<path id="path4179_3_" fill="#8F4C68" d="M147.511-706.846c-4.121-0.09-8.451,1.359-12.314,4.15c-0.165,0.115-0.389,0.115-0.555,0
		c-4.056-2.935-8.634-4.381-12.937-4.124c-1.933,0.115-3.811,0.562-5.569,1.334c-2.552,1.11-4.851,2.906-6.731,5.246
		c-1.88,2.34-3.333,5.232-4.248,8.455c-1.828,6.446-1.398,10.77,1.189,17.659c2.505,6.663,7.223,15.525,12.216,19.177
		c2.595,1.9,7.884,3.112,16.358,1.035c0.104-0.036-0.105-0.036,0,0c5.052,1.817,12.636,2.321,17.871-0.977
		c5.231-3.299,9.638-8.7,12.142-15.366c2.587-6.89,5.016-15.082,3.188-21.528c-0.913-3.223-2.368-6.115-4.25-8.455
		c-1.878-2.34-4.23-3.641-6.783-4.755C155.14-705.848,149.659-706.8,147.511-706.846z"/>
</g>
</svg>
