<?xml version="1.0" encoding="utf-8"?>
<!-- Generator: Adobe Illustrator 15.1.0, SVG Export Plug-In . SVG Version: 6.00 Build 0)  -->
<!DOCTYPE svg PUBLIC "-//W3C//DTD SVG 1.1//EN" "http://www.w3.org/Graphics/SVG/1.1/DTD/svg11.dtd">
<svg version="1.1" id="Layer_1" xmlns="http://www.w3.org/2000/svg" xmlns:xlink="http://www.w3.org/1999/xlink" x="0px" y="0px"
	 width="150.75px" height="109px" viewBox="0 0 150.75 109" enable-background="new 0 0 150.75 109" xml:space="preserve">
<path fill="#AA7552" d="M125.83,65.177h-1.49c-0.839,0.005-1.485,0.754-1.479,1.537v0.985c0.005,0.603,0.334,1.106,0.841,1.342
	l-0.624,8.215l4.087-0.01l-0.58-8.22c0.5-0.231,0.922-0.738,0.925-1.346l-0.002-0.98C127.5,65.911,126.611,65.177,125.83,65.177
	L125.83,65.177z"/>
<path fill="none" stroke="#2C3E50" stroke-width="3.2248" stroke-miterlimit="10" d="M134.587,42.838
	c-1.281-5.839-6.883-6.723-9.573-6.713c-3.32,0.01-8.661,0.764-9.542,7.717c-0.67,5.346,1.842,12.245,3.646,14.572
	c2.052,2.557,3.853,3.864,6.388,3.858c2.329-0.01,3.914-1.161,6.072-4.261C133.53,55.138,135.63,47.772,134.587,42.838z"/>
<path fill="none" stroke="#2C3E50" stroke-width="3.2248" stroke-miterlimit="10" d="M103.534,102.525c0,0,2.76,3.933,21.809,3.873
	c18.99-0.06,21.728-4.019,21.728-4.019c-0.022-4.975-0.756-31.675-3.871-32.499c-3.065-0.829-9.866-3.502-9.866-3.502
	s-2.738,14.496-6.037,14.511l-4.082,0.015c-2.974,0.01-5.394-12.943-6.185-14.38c0,0-6.778,2.672-9.845,3.518L83.742,82.276
	L62.649,64.604c-3.339,0.01-5.879,3.587-5.417,6.241l26.475,22.263L104.4,82.301L103.534,102.525z"/>
<path fill="none" stroke="#AA7552" stroke-width="6.4314" stroke-miterlimit="10" d="M128.108,30.297v-9.19
	c0-8.557-7.002-15.561-15.556-15.561l0,0H20.785c-8.56,0-15.559,7.003-15.559,15.561v65.329c0,8.556,7,15.551,15.559,15.551h67.728"
	/>
<path fill="#2C3E4E" d="M58.554,46.285c-9.532,0.036-13.542-4.135-18.277-8.858c-4.836-4.929-10.291-10.556-22.785-10.511
	l0.008,2.789c10.351-0.036,14.771,4.482,19.407,9.275c4.627,4.723,9.974,10.14,21.655,10.1L58.554,46.285L58.554,46.285z"/>
<path opacity="0.75" fill="#387682" d="M20.651,47.822L20.578,28.99c-0.001-0.412,0.408-0.693,1.018-0.693
	c0.61,0,1.021,0.281,1.028,0.693l0.067,18.827c0,0.418-0.41,0.688-1.017,0.699C21.068,48.516,20.653,48.245,20.651,47.822z"/>
<path opacity="0.75" fill="#35740C" d="M28.828,44.999l-0.051-13.938c-0.001-0.422,0.408-0.694,1.019-0.704
	c0.603,0,1.022,0.282,1.022,0.693l0.053,13.944c0,0.421-0.409,0.693-1.017,0.698C29.243,45.702,28.833,45.42,28.828,44.999z"/>
<path opacity="0.75" fill="#35740C" d="M53.437,47.003l-0.073-18.827c0-0.422,0.412-0.698,1.017-0.698
	c0.618-0.005,1.021,0.276,1.022,0.688l0.073,18.832c0,0.417-0.412,0.694-1.017,0.694C53.851,47.696,53.441,47.416,53.437,47.003z"/>
<path opacity="0.75" fill="#387682" d="M45.226,44.938l-0.051-13.943c-0.002-0.417,0.408-0.698,1.018-0.698
	c0.608,0,1.025,0.276,1.025,0.693l0.05,13.938c0.002,0.422-0.409,0.694-1.015,0.699C45.643,45.632,45.231,45.36,45.226,44.938z"/>
<path fill="#2C3E4E" d="M17.576,49.229l-0.012-2.783c10.348-0.045,14.735-4.593,19.337-9.427c4.59-4.753,9.896-10.215,21.578-10.259
	l0.012,2.793c-9.536,0.03-13.51,4.23-18.208,8.994C35.484,43.516,30.082,49.179,17.576,49.229z"/>
<path fill="#2C3E4E" d="M58.573,49.079l-0.01-2.794c10.346-0.041,14.732-4.592,19.332-9.416c4.593-4.758,9.894-10.22,21.578-10.265
	l0.015,2.789c-9.539,0.04-13.511,4.241-18.208,8.999C76.476,43.355,71.077,49.028,58.573,49.079z"/>
<path opacity="0.7" fill="#8F4C68" d="M62.89,47.692c-0.608,0-1.015-0.277-1.015-0.694l0.07-18.832
	c0.005-0.412,0.407-0.694,1.026-0.688c0.604,0,1.014,0.276,1.012,0.698l-0.068,18.827C63.91,47.416,63.498,47.696,62.89,47.692z"/>
<path opacity="0.75" fill="#387682" d="M71.097,45.626c-0.608-0.004-1.017-0.276-1.017-0.699l0.052-13.938
	c0-0.417,0.417-0.693,1.023-0.693c0.61,0,1.022,0.281,1.02,0.698l-0.052,13.943C72.115,45.36,71.705,45.632,71.097,45.626z"/>
<path opacity="0.75" fill="#35740C" d="M95.617,48.134c-0.61,0-1.018-0.276-1.018-0.693l0.067-18.833
	c0.008-0.412,0.415-0.693,1.028-0.693c0.608,0,1.018,0.282,1.018,0.704L96.64,47.446C96.637,47.862,96.226,48.139,95.617,48.134z"/>
<path opacity="0.7" fill="#8F4C68" d="M87.439,45.692c-0.61-0.005-1.022-0.277-1.022-0.698l0.058-13.944
	c0-0.412,0.417-0.693,1.02-0.693c0.611,0.01,1.021,0.282,1.018,0.704l-0.051,13.938C88.459,45.42,88.047,45.702,87.439,45.692z"/>
<path fill="#2C3E4E" d="M99.549,46.129c-9.532,0.035-13.538-4.135-18.279-8.858c-4.834-4.929-10.286-10.556-22.78-10.51l0.009,2.788
	c10.345-0.036,14.77,4.481,19.404,9.27c4.63,4.724,9.976,10.146,21.655,10.1L99.549,46.129L99.549,46.129z"/>
</svg>
