<?xml version="1.0" encoding="utf-8"?>
<!-- Generator: Adobe Illustrator 15.1.0, SVG Export Plug-In . SVG Version: 6.00 Build 0)  -->
<!DOCTYPE svg PUBLIC "-//W3C//DTD SVG 1.1//EN" "http://www.w3.org/Graphics/SVG/1.1/DTD/svg11.dtd">
<svg version="1.1" id="Layer_1" xmlns="http://www.w3.org/2000/svg" xmlns:xlink="http://www.w3.org/1999/xlink" x="0px" y="0px"
	 width="238.25px" height="109px" viewBox="0 0 238.25 109" enable-background="new 0 0 238.25 109" xml:space="preserve">
<g>
	<g opacity="0.75">
		<g>
			<path fill="#419928" d="M107.808,56.332c1.212-1.408,1.511-1.383,1.511-1.383c1.718,1.521,4.775,2.057,7.119,1.259
				c3.1-1.062,3.886-5.144,8.158-6.029c0.992-0.21-6.827-4.624-11.713-3.226c-3.569,1.021-4.649,4.182-4.775,5.155
				c-0.117,0.881,0.157,1.722,0.157,1.722c-1.168,1.006-1.533,1.637-1.533,1.637C106.4,55.872,107.398,56.805,107.808,56.332z
				 M109.46,53.399c3.779-3.339,9.965-3.759,9.965-3.759s-4.882,0.709-9.423,4.503C109.753,53.998,109.502,53.641,109.46,53.399z"/>
		</g>
	</g>
	<g id="g4213_2_" transform="matrix(1.3157811,0,0,1.3065705,-134.89456,960.51297)">
		<path id="path4179_2_" fill="none" stroke="#AA7552" stroke-width="2.2373" stroke-miterlimit="10" d="M184.637-686.375
			c0-1.937-0.428-3.77-1.252-5.367c-0.635-1.222-1.495-2.305-2.552-3.204"/>
	</g>
	<g id="g4213_3_" transform="matrix(1.3157811,0,0,1.3065705,-134.89456,960.51297)">
		<path id="path4179_3_" fill="#CE80A4" d="M190.389-690.057c-1.913-0.044-3.92,0.629-5.71,1.922c-0.078,0.055-0.183,0.055-0.26,0
			c-1.88-1.36-4.003-2.031-6-1.912c-0.898,0.053-1.769,0.261-2.582,0.618c-1.186,0.515-2.253,1.348-3.123,2.434
			c-0.873,1.085-1.547,2.426-1.971,3.921c-0.847,2.99-0.649,4.996,0.551,8.191c1.161,3.091,3.346,7.199,5.664,8.897
			c1.204,0.88,3.659,1.441,7.586,0.479c0.049-0.019-0.049-0.019,0,0c2.345,0.844,5.864,1.077,8.292-0.453
			c2.423-1.531,4.47-4.035,5.628-7.127c1.202-3.198,2.329-6.994,1.483-9.986c-0.426-1.495-1.099-2.836-1.974-3.921
			c-0.87-1.085-1.959-1.689-3.146-2.206C193.929-689.597,191.385-690.036,190.389-690.057z"/>
	</g>
</g>
<path fill="#2BBDC1" d="M163.544,66.378l-11.461,15.785c-0.652,0.555-0.685,3.905-0.685,4.646c0,1.829,2.383,3.313,5.333,3.313
	h53.378c2.948,0,5.34-1.486,5.34-3.313c0-0.739,0.274-3.409-0.377-3.963l-13.064-16.468"/>
<path fill="none" stroke="#2E3C3D" stroke-width="3.6428" stroke-miterlimit="10" d="M192.763,32.745h0.67
	c1.841,0,3.335-1.499,3.335-3.339c0-1.841-1.494-3.335-3.335-3.335h-20.016c-1.84,0-3.34,1.495-3.34,3.335
	c0,1.84,1.499,3.339,3.34,3.339h0.663v19.173l-21.641,29.694c-0.659,0.894-1.041,1.987-1.041,3.178c0,2.941,2.384,5.333,5.334,5.333
	h53.378c2.948,0,5.34-2.391,5.34-5.333c0-1.19-0.39-2.284-1.04-3.178l-21.646-29.694L192.763,32.745L192.763,32.745z"/>
<path fill="#2BBDC1" d="M177.139,60.435c0,1.679,1.361,3.044,3.041,3.044c1.683,0,3.042-1.365,3.042-3.044s-1.359-3.042-3.042-3.042
	C178.5,57.393,177.139,58.756,177.139,60.435z"/>
<circle fill="#2BBDC1" cx="185.252" cy="17.104" r="1.927"/>
<path fill="#FFFFFF" d="M179.763,78.734c0,1.947,1.579,3.526,3.527,3.526c1.952,0,3.528-1.58,3.528-3.526
	c0-1.947-1.578-3.524-3.528-3.524C181.342,75.21,179.763,76.787,179.763,78.734z"/>
<path fill="#FFFFFF" d="M172.49,73.37c0,1.321,1.075,2.396,2.398,2.396c1.32,0,2.397-1.075,2.397-2.396c0-1.326-1.077-2.4-2.397-2.4
	C173.564,70.97,172.49,72.046,172.49,73.37z"/>
<circle fill="#2BBDC1" cx="179.764" cy="7.732" r="3.495"/>
<line fill="none" stroke="#AA7552" stroke-width="12.8902" stroke-miterlimit="10" x1="68.25" y1="98.667" x2="238.25" y2="98.667"/>
</svg>
