<?xml version="1.0" encoding="utf-8"?>
<!-- Generator: Adobe Illustrator 15.1.0, SVG Export Plug-In . SVG Version: 6.00 Build 0)  -->
<!DOCTYPE svg PUBLIC "-//W3C//DTD SVG 1.1//EN" "http://www.w3.org/Graphics/SVG/1.1/DTD/svg11.dtd">
<svg version="1.1" id="Layer_1" xmlns="http://www.w3.org/2000/svg" xmlns:xlink="http://www.w3.org/1999/xlink" x="0px" y="0px"
	 width="238.25px" height="109px" viewBox="0 0 238.25 109" enable-background="new 0 0 238.25 109" xml:space="preserve">
<line fill="none" stroke="#AA7552" stroke-width="12.8902" stroke-miterlimit="10" x1="-0.375" y1="98.667" x2="169.625" y2="98.667"/>
<g>
	<rect x="13.791" y="3.667" fill="#2BBDC1" width="21.589" height="21.602"/>
	<rect x="13.791" y="23.848" fill="#2E3C3D" width="21.589" height="8.985"/>
	<rect x="13.791" y="32.661" fill="#2BBDC1" width="21.589" height="30.479"/>
	<g>
		<rect x="13.791" y="70.704" fill="#2BBDC1" width="21.589" height="21.603"/>
		<rect x="13.791" y="63.14" fill="#2E3C3D" width="21.589" height="8.985"/>
	</g>
</g>
<g>
	<rect x="36.54" y="23.848" fill="#CE80A4" width="25.304" height="16.685"/>
	<rect x="36.54" y="39.435" fill="#2E3C3D" width="25.304" height="6.939"/>
	<rect x="36.54" y="46.241" fill="#CE80A4" width="25.304" height="23.54"/>
	<g>
		<rect x="36.54" y="75.622" fill="#CE80A4" width="25.304" height="16.685"/>
		<rect x="36.54" y="69.78" fill="#2E3C3D" width="25.304" height="6.939"/>
	</g>
</g>
<path fill="none" stroke="#2E3C3D" stroke-width="4.0169" stroke-miterlimit="10" d="M112.816,46.441l10.865-10.865
	c4.543,2.734,7.855,7.396,7.857,13.087c-8.68,0.004-15.711,7.042-15.713,15.719H84.404l0.002,5.236h15.709
	c1.562,1.164,3.443,1.807,5.24,2.619l-0.004,7.852H94.879L84.404,90.562h62.846l-10.475-10.475l-1.883,0.002
	c7.061-1.529,12.355-8.182,12.355-15.707c0-4.787-2.182-9.012-5.559-11.9c0.195-1.248,0.318-2.514,0.318-3.817
	c0-8.576-4.08-16.189-10.473-20.945l5.238-5.234v-5.242l5.234-5.231l-5.234-5.239l-5.236,5.235l-5.238,0.004L102.34,35.963
	L112.816,46.441z M126.303,64.382c0-2.896,2.338-5.24,5.234-5.24c2.893,0,5.238,2.344,5.238,5.24c0,2.885-2.344,5.236-5.238,5.236
	C128.641,69.618,126.299,67.265,126.303,64.382z"/>
<g>
	<g>
		<g>
			<path fill="#419928" d="M107.941,57.552c-3.299-0.51-3.545-0.986-3.545-0.986c0.674-4.07-1.43-9.235-4.873-12.032
				c-4.568-3.706-11.529-1.014-16.945-6.673c-1.264-1.31-0.525,14.798,6.252,20.898c4.959,4.457,10.797,3.088,12.395,2.357
				c1.461-0.664,2.475-1.877,2.475-1.877c2.65,0.816,3.953,0.77,3.953,0.77C108.58,60.126,109.049,57.716,107.941,57.552z
				 M101.898,57.821c-8.682-2.568-15.215-11.575-15.215-11.575s5.732,6.756,15.83,10.051
				C102.531,56.81,102.229,57.536,101.898,57.821z"/>
		</g>
	</g>
</g>
</svg>
