<?xml version="1.0" encoding="utf-8"?>
<!-- Generator: Adobe Illustrator 15.1.0, SVG Export Plug-In . SVG Version: 6.00 Build 0)  -->
<!DOCTYPE svg PUBLIC "-//W3C//DTD SVG 1.1//EN" "http://www.w3.org/Graphics/SVG/1.1/DTD/svg11.dtd">
<svg version="1.1" id="Layer_1" xmlns="http://www.w3.org/2000/svg" xmlns:xlink="http://www.w3.org/1999/xlink" x="0px" y="0px"
	 width="92.25px" height="109px" viewBox="0 0 92.25 109" enable-background="new 0 0 92.25 109" xml:space="preserve">
<path fill="none" stroke="#FFFFFF" stroke-width="4.7541" stroke-miterlimit="10" d="M41.286,52.279l12.858-12.86
	c5.376,3.236,9.294,8.756,9.3,15.488c-10.275,0.004-18.594,8.333-18.599,18.603H7.657l0.005,6.197h18.592
	c1.849,1.379,4.071,2.14,6.197,3.102l-0.002,9.294H20.053L7.657,104.5h74.38L69.641,92.1l-2.228,0.004
	c8.356-1.815,14.624-9.685,14.624-18.593c0-5.665-2.581-10.665-6.579-14.082c0.232-1.477,0.376-2.976,0.376-4.518
	c0-10.148-4.829-19.16-12.397-24.787l6.203-6.198v-6.203l6.194-6.193l-6.194-6.198l-6.197,6.193l-6.203,0.005L28.888,39.879
	L41.286,52.279z M57.246,73.511c0-3.427,2.767-6.198,6.192-6.198c3.427,0,6.203,2.771,6.203,6.198c0,3.416-2.776,6.197-6.203,6.197
	C60.012,79.708,57.241,76.927,57.246,73.511z"/>
<g>
	<g>
		<path fill="#419928" d="M39.062,65.427c-3.902-0.598-4.197-1.165-4.197-1.165c0.799-4.815-1.685-10.929-5.761-14.239
			c-5.406-4.387-13.647-1.202-20.056-7.897c-1.497-1.551-0.626,17.512,7.4,24.731c5.866,5.278,12.777,3.654,14.671,2.79
			c1.723-0.785,2.928-2.224,2.928-2.224c3.131,0.97,4.677,0.914,4.677,0.914C39.822,68.473,40.374,65.623,39.062,65.427z
			 M31.915,65.748c-10.279-3.041-18.008-13.701-18.008-13.701s6.783,7.994,18.735,11.894C32.662,64.55,32.303,65.414,31.915,65.748z
			"/>
	</g>
</g>
</svg>
